# xmcd
#
# Track frame offsets:
#	150
#	12835
#	28797
#	47679
#	61609
#	77249
#	93337
#	110507
#	126815
#	141022
#	155915
#	170047
#	188852
#	205024
#	221377
#
# Disc length: 3144 seconds
#
# Revision: 1
# Processed by: cddbd v1.5.2PL0 Copyright (c) Steve Scherf et al.
# Submitted via: audiograbber 1.83.01
#
DISCID=cb0c460f
DTITLE=Various Artist - Hot Hitz Country Vol 99
DYEAR=1900
DGENRE=Country
TTITLE0=Alan Jackson - It Must Be Love
TTITLE1=Lonestar - What About Now
TTITLE2=Vince Gill - Feels Like Love
TTITLE3=Randy Travis - A Little Left Of Center
TTITLE4=Martina McBride - There You Are
TTITLE5=Alabama - We Made Love
TTITLE6=The Wilkinsons - Shame On Me
TTITLE7=The Warren Brothers w/ Sara Evans - That's The Beat Of A Heart
TTITLE8=River Road - Breathless
TTITLE9=Wade Hayes - Goodbye Is The Wrong Way To Go
TTITLE10=Tracy Lawrence - Lonely
TTITLE11=Chely Wright - She Went Out For Cigarettes
TTITLE12=Montgomery Gentry - Self Made Man
TTITLE13=Toby Keith - Country Comes To Town
TTITLE14=Travelin' Tom and Dr. Paul - Nashville Suzie
EXTD=
EXTT0=
EXTT1=
EXTT2=
EXTT3=
EXTT4=
EXTT5=
EXTT6=
EXTT7=
EXTT8=
EXTT9=
EXTT10=
EXTT11=
EXTT12=
EXTT13=
EXTT14=
PLAYORDER=
